<?xml version="1.0" encoding="UTF-8"?>
<svg width="752pt" height="752pt" version="1.1" viewBox="0 0 752 752" xmlns="http://www.w3.org/2000/svg">
 <g fill-rule="evenodd">
  <path d="m274.25 253.91c59.199 0 107.3 70.297 107.3 155.39 0 85.098-48.098 155.39-107.3 155.39-59.199 0-107.3-70.297-107.3-155.39 0-85.098 48.098-155.39 107.3-155.39zm3.6992 295.99c-44.398-85.098 55.496-162.79 0-281.19 22.199 170.19-66.598 188.69 0 281.19z"/>
  <path d="m388.95 350.1c114.7-18.5 255.29 147.99 177.59 233.09-59.199 62.898-166.49 7.3984-210.89-48.098 25.898-33.297 40.699-77.695 40.699-114.7 81.398 77.695 62.898 140.59 162.79 151.7-77.695-18.5-81.398-114.7-162.79-170.19 0-18.5-3.6992-37-7.3984-51.797z"/>
  <path d="m522.14 154.01c33.297 25.898 29.598 88.797-11.098 133.2-37 48.098-96.195 62.898-129.5 37-33.297-25.898-29.598-88.797 11.098-133.2 37-48.098 96.195-62.898 129.5-37zm-133.2 166.49c14.801-66.598 103.6-62.898 129.5-159.09-62.898 103.6-122.09 73.996-129.5 159.09z"/>
 </g>
</svg>
