<?xml version="1.0" encoding="UTF-8"?>
<svg width="752pt" height="752pt" version="1.1" viewBox="0 0 752 752" xmlns="http://www.w3.org/2000/svg">
 <g>
  <path d="m332.93 583.19c-18.375 0.16406-36.5-4.3125-52.684-13.023-3.7109-2.0508-7.293-4.3242-10.73-6.8047l-4.1445-2.8867 1.4805-4.8086c8.2148-26.27 16.426-51.797 26.121-77.105 1.2578-3.8477 2.9609-7.3984 4.5859-11.543l1.6289-3.8477c0.88672-2.0703 1.7031-4.0703 2.5156-6.0664 0.8125-1.9961 2.5156-6.2148 3.9219-9.1758 1.4062-2.9609 3.1836-6.5859 4.7344-9.7695 3.1094-6.5117 6.2891-13.172 10.062-19.609h0.003907c10.332-18.98 22.289-37.031 35.742-53.945 4.293-5.625 8.9531-11.32 13.688-17.168 9.3984-11.617 19.164-23.605 28.043-37l0.003906 0.003906c13.168-19.77 22.992-41.566 29.078-64.527 2.9688-10.996 5.2422-22.164 6.8086-33.445l1.0352-7.3984 7.3984 1.4805 0.003907-0.003906c10.344 2.125 20.316 5.7656 29.598 10.805 70 38.035 83.988 147.99 31.152 245.3-40.477 74.664-108.85 120.54-170.05 120.54zm-51.281-28.266c1.7773 1.1094 3.4766 2.1445 5.1797 3.1094 63.34 34.41 154.8-11.246 204.01-101.75 49.207-90.5 37.738-192.39-25.602-226.58-6.0234-3.1602-12.375-5.6406-18.945-7.4023-1.5312 9.2969-3.5312 18.508-5.9922 27.602-6.4766 24.406-16.93 47.582-30.93 68.594-9.1016 13.098-19.094 25.68-28.711 37.52-4.6602 5.6992-9.1758 11.32-13.543 16.945-13.035 16.379-24.621 33.855-34.629 52.242-3.5508 6.0664-6.5117 12.211-9.5469 18.648-1.5547 3.3281-3.1094 6.5859-4.8086 9.8398-1.7031 3.2578-2.3672 5.4766-3.5508 8.4375-1.1836 2.9609-1.7031 4.1445-2.5898 6.2148l-1.7031 3.9219c-1.5547 3.625-3.1094 7.3984-4.293 10.656-8.9531 23.75-16.723 47.504-24.344 71.848z"/>
  <path d="m263.01 559.81-10.953-11.988c-45.73-50.316-46.988-142.07-2.9609-223.1 38.109-69.48 101.6-116.69 162.57-120.17l10.285-0.59375-3.3281 9.7695c-3.4023 9.8398-6.5859 18.352-9.9141 25.973h-0.003907c-8.3008 19.852-19.117 38.555-32.188 55.645-6.7344 8.8047-14.059 17.465-22.199 26.566-8.1406 9.1016-13.984 16.352-20.867 25.16-7.7695 10.137-14.43 19.535-20.203 28.785-2.2188 3.2578-3.9961 6.5859-5.918 10.062l-2.9609 5.3281c-2.75 5.0117-5.2227 10.176-7.3984 15.465-4.9688 10.684-9.3672 21.625-13.172 32.781-3.3281 10.805-6.8828 22.199-9.3242 33.227v-0.003906c-5.2734 23.328-8.7383 47.027-10.359 70.891zm138.89-340.39c-53.055 7.8438-107.29 50.617-140.59 112.18-37.441 68.672-40.695 145.26-9.4688 193.21 1.9414-18.562 4.9805-36.996 9.1016-55.199 2.5898-11.617 6.1406-23.16 9.6211-34.336h-0.003906c3.9844-11.711 8.6055-23.199 13.84-34.41 2.4688-5.6758 5.2617-11.211 8.3594-16.574l2.8125-5.1055c1.9961-3.625 3.9961-7.3984 6.4375-11.027 5.918-9.3984 12.801-19.164 20.867-29.598 7.3984-9.0273 14.281-17.465 21.312-25.602 7.0312-8.1406 14.801-17.465 21.461-25.973h-0.003906c12.379-16.184 22.625-33.891 30.488-52.688 2.0703-4.6602 3.7734-9.5469 5.6992-14.875z"/>
 </g>
</svg>
